<mxfile host="app.diagrams.net" modified="2024-07-04T13:41:27.154Z" agent="Mozilla/5.0 (Windows NT 10.0; Win64; x64) AppleWebKit/537.36 (KHTML, like Gecko) Chrome/126.0.0.0 Safari/537.36" etag="vYQPjdZGaI84BWfcgb98" version="24.6.4" type="google">
  <diagram id="C5RBs43oDa-KdzZeNtuy" name="Page-1">
    <mxGraphModel grid="1" page="1" gridSize="10" guides="1" tooltips="1" connect="1" arrows="1" fold="1" pageScale="1" pageWidth="827" pageHeight="1169" math="0" shadow="0">
      <root>
        <mxCell id="WIyWlLk6GJQsqaUBKTNV-0" />
        <mxCell id="WIyWlLk6GJQsqaUBKTNV-1" parent="WIyWlLk6GJQsqaUBKTNV-0" />
        <mxCell id="IOjkPoe3USArhTnUyWYH-1" value="" style="edgeStyle=orthogonalEdgeStyle;rounded=0;orthogonalLoop=1;jettySize=auto;html=1;" edge="1" parent="WIyWlLk6GJQsqaUBKTNV-1" source="uIwqvVoQzUklLGvQMXrW-0" target="FwprbMzNq6_LQJlTj2TE-0">
          <mxGeometry relative="1" as="geometry" />
        </mxCell>
        <mxCell id="uIwqvVoQzUklLGvQMXrW-0" value="Begin&amp;nbsp;" style="ellipse;whiteSpace=wrap;html=1;" vertex="1" parent="WIyWlLk6GJQsqaUBKTNV-1">
          <mxGeometry x="360" y="40" width="117" height="80" as="geometry" />
        </mxCell>
        <mxCell id="IOjkPoe3USArhTnUyWYH-2" value="" style="edgeStyle=orthogonalEdgeStyle;rounded=0;orthogonalLoop=1;jettySize=auto;html=1;" edge="1" parent="WIyWlLk6GJQsqaUBKTNV-1" source="FwprbMzNq6_LQJlTj2TE-0" target="FwprbMzNq6_LQJlTj2TE-2">
          <mxGeometry relative="1" as="geometry" />
        </mxCell>
        <mxCell id="FwprbMzNq6_LQJlTj2TE-0" value="Input T, L, H" style="shape=parallelogram;perimeter=parallelogramPerimeter;whiteSpace=wrap;html=1;fixedSize=1;" vertex="1" parent="WIyWlLk6GJQsqaUBKTNV-1">
          <mxGeometry x="320" y="160" width="200" height="60" as="geometry" />
        </mxCell>
        <mxCell id="IOjkPoe3USArhTnUyWYH-3" value="" style="edgeStyle=orthogonalEdgeStyle;rounded=0;orthogonalLoop=1;jettySize=auto;html=1;" edge="1" parent="WIyWlLk6GJQsqaUBKTNV-1" source="FwprbMzNq6_LQJlTj2TE-2" target="FwprbMzNq6_LQJlTj2TE-3">
          <mxGeometry relative="1" as="geometry" />
        </mxCell>
        <mxCell id="FwprbMzNq6_LQJlTj2TE-2" value="A = (T + L + H) / 3" style="whiteSpace=wrap;html=1;" vertex="1" parent="WIyWlLk6GJQsqaUBKTNV-1">
          <mxGeometry x="345.5" y="260" width="146" height="80" as="geometry" />
        </mxCell>
        <mxCell id="IOjkPoe3USArhTnUyWYH-5" value="" style="edgeStyle=orthogonalEdgeStyle;rounded=0;orthogonalLoop=1;jettySize=auto;html=1;" edge="1" parent="WIyWlLk6GJQsqaUBKTNV-1" source="FwprbMzNq6_LQJlTj2TE-3" target="FwprbMzNq6_LQJlTj2TE-5">
          <mxGeometry relative="1" as="geometry" />
        </mxCell>
        <mxCell id="FwprbMzNq6_LQJlTj2TE-3" value="Output A" style="shape=parallelogram;perimeter=parallelogramPerimeter;whiteSpace=wrap;html=1;fixedSize=1;" vertex="1" parent="WIyWlLk6GJQsqaUBKTNV-1">
          <mxGeometry x="318.5" y="380" width="200" height="60" as="geometry" />
        </mxCell>
        <mxCell id="FwprbMzNq6_LQJlTj2TE-5" value="End" style="ellipse;whiteSpace=wrap;html=1;" vertex="1" parent="WIyWlLk6GJQsqaUBKTNV-1">
          <mxGeometry x="361.5" y="480" width="117" height="80" as="geometry" />
        </mxCell>
        <mxCell id="IOjkPoe3USArhTnUyWYH-0" style="edgeStyle=orthogonalEdgeStyle;rounded=0;orthogonalLoop=1;jettySize=auto;html=1;exitX=0.5;exitY=1;exitDx=0;exitDy=0;" edge="1" parent="WIyWlLk6GJQsqaUBKTNV-1" source="uIwqvVoQzUklLGvQMXrW-0" target="uIwqvVoQzUklLGvQMXrW-0">
          <mxGeometry relative="1" as="geometry" />
        </mxCell>
      </root>
    </mxGraphModel>
  </diagram>
</mxfile>
